<svg width="552" height="554" viewBox="0 0 552 554" fill="none" xmlns="http://www.w3.org/2000/svg">
<path d="M273.425 193.714C274.58 194.311 275.953 194.31 277.107 193.71L347.801 156.945C351.656 154.94 355.492 159.655 352.746 163.022L278.357 254.212C276.76 256.17 273.769 256.174 272.166 254.221L197.313 163.005C194.556 159.645 198.381 154.918 202.242 156.914L273.425 193.714Z" fill="#F3D9FF" fill-opacity="0.95"/>
<path d="M271.108 5.54487C272.663 3.00256 276.353 2.99277 277.921 5.52678L356.833 133C358.02 134.916 357.389 137.434 355.439 138.565L276.519 184.329C275.271 185.053 273.731 185.049 272.488 184.319L194.514 138.562C192.584 137.429 191.958 134.934 193.126 133.025L271.108 5.54487Z" fill="#F3D9FF" fill-opacity="0.95"/>
<path d="M329.983 220.502C330.377 221.742 331.35 222.712 332.59 223.103L408.574 247.094C412.718 248.402 412.097 254.449 407.774 254.888L290.692 266.769C288.178 267.024 286.06 264.912 286.308 262.397L297.878 144.968C298.305 140.643 304.352 140.005 305.671 144.147L329.983 220.502Z" fill="#E3B2FF" fill-opacity="0.95"/>
<path d="M461.4 85.8085C464.298 85.1105 466.914 87.7123 466.231 90.6134L431.893 236.549C431.377 238.744 429.15 240.078 426.971 239.499L338.806 216.054C337.413 215.683 336.327 214.592 335.963 213.196L313.183 125.705C312.619 123.54 313.941 121.333 316.117 120.809L461.4 85.8085Z" fill="#E3B2FF" fill-opacity="0.95"/>
<path d="M358.286 274.425C357.689 275.58 357.69 276.953 358.29 278.107L395.055 348.801C397.06 352.656 392.345 356.492 388.978 353.746L297.788 279.357C295.83 277.76 295.826 274.769 297.779 273.166L388.995 198.313C392.355 195.556 397.082 199.381 395.086 203.242L358.286 274.425Z" fill="#D08AFF" fill-opacity="0.95"/>
<path d="M546.455 272.108C548.997 273.663 549.007 277.353 546.473 278.921L419 357.833C417.084 359.02 414.566 358.389 413.435 356.439L367.671 277.519C366.947 276.271 366.951 274.731 367.681 273.488L413.438 195.514C414.571 193.584 417.066 192.958 418.975 194.126L546.455 272.108Z" fill="#D08AFF" fill-opacity="0.95"/>
<path d="M333.21 330.983C331.971 331.377 331.001 332.35 330.61 333.59L306.619 409.574C305.31 413.718 299.263 413.097 298.825 408.774L286.944 291.692C286.689 289.178 288.801 287.06 291.316 287.308L408.745 298.878C413.07 299.305 413.707 305.352 409.566 306.671L333.21 330.983Z" fill="#BF6DFF" fill-opacity="0.95"/>
<path d="M467.904 462.4C468.602 465.298 466 467.914 463.099 467.231L317.164 432.893C314.969 432.377 313.635 430.15 314.214 427.971L337.659 339.806C338.029 338.413 339.121 337.327 340.516 336.963L428.008 314.183C430.173 313.619 432.38 314.941 432.904 317.117L467.904 462.4Z" fill="#BF6DFF" fill-opacity="0.95"/>
<path d="M273.425 360.286C274.58 359.689 275.953 359.69 277.107 360.29L347.801 397.055C351.656 399.06 355.492 394.345 352.746 390.978L278.357 299.788C276.76 297.83 273.769 297.826 272.166 299.779L197.313 390.995C194.556 394.355 198.381 399.082 202.242 397.086L273.425 360.286Z" fill="#A052E0" fill-opacity="0.95"/>
<path d="M271.108 548.455C272.663 550.997 276.353 551.007 277.921 548.473L356.833 421C358.02 419.084 357.389 416.566 355.439 415.435L276.519 369.671C275.271 368.947 273.731 368.951 272.488 369.681L194.514 415.438C192.584 416.571 191.958 419.066 193.126 420.975L271.108 548.455Z" fill="#A052E0" fill-opacity="0.95"/>
<path d="M217.502 330.983C218.742 331.377 219.712 332.35 220.103 333.59L244.094 409.574C245.402 413.718 251.449 413.097 251.888 408.774L263.769 291.692C264.024 289.178 261.912 287.06 259.397 287.308L141.968 298.878C137.643 299.305 137.005 305.352 141.147 306.671L217.502 330.983Z" fill="#8039B5" fill-opacity="0.95"/>
<path d="M82.8085 462.4C82.1105 465.298 84.7123 467.914 87.6134 467.231L233.549 432.893C235.744 432.377 237.078 430.15 236.499 427.971L213.054 339.806C212.683 338.413 211.592 337.327 210.196 336.963L122.705 314.183C120.54 313.619 118.333 314.941 117.809 317.117L82.8085 462.4Z" fill="#8039B5" fill-opacity="0.95"/>
<path d="M193.714 276.425C194.311 277.58 194.31 278.953 193.71 280.107L156.945 350.801C154.94 354.656 159.655 358.492 163.022 355.746L254.212 281.357C256.17 279.76 256.174 276.769 254.221 275.166L163.005 200.313C159.645 197.556 154.918 201.381 156.914 205.242L193.714 276.425Z" fill="#662D99" fill-opacity="0.95"/>
<path d="M5.54487 274.108C3.00256 275.663 2.99277 279.353 5.52678 280.921L133 359.833C134.916 361.02 137.434 360.389 138.565 358.439L184.329 279.519C185.053 278.271 185.049 276.731 184.319 275.488L138.562 197.514C137.429 195.584 134.934 194.958 133.025 196.126L5.54487 274.108Z" fill="#662D99" fill-opacity="0.95"/>
<path d="M220.017 220.502C219.623 221.742 218.65 222.712 217.41 223.103L141.426 247.094C137.282 248.402 137.903 254.449 142.226 254.888L259.308 266.769C261.822 267.024 263.94 264.912 263.692 262.397L252.122 144.968C251.695 140.643 245.648 140.005 244.329 144.147L220.017 220.502Z" fill="#4D1F73"/>
<path d="M88.5996 85.8085C85.7022 85.1105 83.0865 87.7123 83.7691 90.6134L118.107 236.549C118.623 238.744 120.85 240.078 123.029 239.499L211.194 216.054C212.587 215.683 213.673 214.592 214.037 213.196L236.817 125.705C237.381 123.54 236.059 121.333 233.883 120.809L88.5996 85.8085Z" fill="#4D1F73"/>
<path d="M197.313 163.005C194.556 159.645 198.381 154.918 202.242 156.914L273.424 193.714C273.921 193.97 274.457 194.116 275 194.151V255.674C273.942 255.606 272.906 255.123 272.166 254.221L197.313 163.005Z" fill="#F3D9FF" fill-opacity="0.95"/>
<path d="M271.108 5.54497C271.983 4.11512 273.533 3.48588 275.001 3.6602V184.839C274.143 184.944 273.258 184.771 272.488 184.319L194.513 138.562C192.584 137.429 191.958 134.933 193.126 133.024L271.108 5.54497Z" fill="#F3D9FF" fill-opacity="0.95"/>
</svg>
