<svg width="112" height="110" viewBox="0 0 112 110" fill="none" xmlns="http://www.w3.org/2000/svg">
<path d="M12.0433 22.8507C17.872 22.2866 22.5305 17.7562 23.2568 11.9455L23.3043 11.5658C24.3926 2.85909 33.6198 -2.28808 41.6 1.36L48.5222 4.52445C53.2711 6.69535 58.7289 6.69535 63.4778 4.52445L70.4665 1.32959C78.3073 -2.25476 87.3408 2.96885 88.1455 11.5524V11.5524C88.7075 17.5462 93.5151 22.2983 99.5089 22.8602V22.8602C108.102 23.6658 113.52 32.6196 110.12 40.5522L107.039 47.7421C105.053 52.3768 105.053 57.6232 107.039 62.2579L110.395 70.0883C113.668 77.7247 108.583 86.3417 100.316 87.1684V87.1684C94.7452 87.7255 90.2539 91.9749 89.3897 97.5061L89.2475 98.4157C87.8681 107.244 78.4403 112.316 70.3135 108.6L63.8478 105.645C58.864 103.366 53.136 103.366 48.1522 105.645L41.9198 108.494C33.4765 112.354 23.6258 107.432 21.6419 98.3628L21.2218 96.4424C20.1338 91.4686 15.9859 87.7485 10.9234 87.2061V87.2061C3.00966 86.3582 -1.82678 78.0958 1.30845 70.7803L4.95343 62.2753C6.94452 57.6295 6.94452 52.3705 4.95343 47.7247L1.74504 40.2384C-1.5925 32.4508 3.61001 23.6668 12.0433 22.8507V22.8507Z" fill="white"/>
<path d="M16.3669 26.0129C21.6223 25.5043 25.8226 21.4196 26.4775 16.1803L26.5202 15.838C27.5015 7.98771 35.8211 3.34681 43.0164 6.63606L49.2577 9.48926C53.5395 11.4466 58.4605 11.4466 62.7422 9.48926L69.0436 6.60864C76.1131 3.37686 84.2581 8.08667 84.9837 15.8259V15.8259C85.4903 21.2302 89.8251 25.5148 95.2293 26.0215V26.0215C102.977 26.7478 107.862 34.8209 104.797 41.9733L102.019 48.456C100.228 52.6349 100.228 57.3651 102.019 61.544L105.045 68.6042C107.995 75.4895 103.411 83.2589 95.9568 84.0043V84.0043C90.9342 84.5066 86.8847 88.338 86.1054 93.3252L85.9773 94.1453C84.7335 102.106 76.2331 106.678 68.9056 103.328L63.0759 100.663C58.5823 98.609 53.4177 98.609 48.9241 100.663L43.3048 103.232C35.6919 106.712 26.8101 102.275 25.0214 94.0977L24.6426 92.3661C23.6616 87.8815 19.9217 84.5273 15.3572 84.0383V84.0383C8.22183 83.2738 3.8611 75.8241 6.68795 69.2281L9.9744 61.5597C11.7696 57.3708 11.7696 52.6292 9.9744 48.4403L7.08159 41.6904C4.07233 34.6688 8.76313 26.7487 16.3669 26.0129V26.0129Z" fill="#1C265D"/>
<path d="M83.1292 60.0048C82.8452 61.2197 82.7312 62.8282 82.0782 63.9302C82.0692 63.9456 82.0602 63.9609 82.0511 63.9762C81.7866 64.4233 81.4728 64.855 81.0738 65.3573C81.0229 65.4212 80.9702 65.4861 80.9164 65.5523C80.4373 66.1393 79.8359 66.8429 78.9868 67.7396C76.158 70.7148 74.0122 73.035 73.2981 73.815C71.8858 75.3187 69.999 76.5724 67.2032 77.7483C66.9457 77.8553 66.6818 77.9589 66.4089 78.0627C66.1872 78.1471 65.9134 77.9653 65.7993 77.6596C65.6852 77.3538 65.7654 77.0438 65.9763 76.9636C66.2321 76.8665 66.4784 76.7685 66.7193 76.6688C66.7204 76.6683 66.7215 76.6679 66.7226 76.6674C69.415 75.5368 71.1766 74.3604 72.4908 72.9542C73.1877 72.1887 75.2737 69.9177 78.0486 67.0333C78.8707 66.175 79.4532 65.5003 79.9163 64.9403C79.9669 64.8788 80.0163 64.8188 80.0638 64.7599C80.0649 64.7586 80.0661 64.7572 80.0673 64.7559C80.4529 64.2768 80.7424 63.8836 80.9852 63.4781C80.9901 63.4694 80.995 63.4607 80.9999 63.452C81.6342 62.394 81.7081 60.8871 81.9718 59.7699C82.0237 59.5561 82.3227 59.4282 82.6437 59.4864C82.9643 59.5447 83.1834 59.7777 83.1292 60.0048ZM27.8432 44.5635C28.0084 43.0844 28.9719 41.3772 30.074 40.0895C31.1776 38.7794 32.4304 37.8383 33.0582 37.454C33.6723 37.0759 34.2405 36.5685 34.9237 35.9681C35.0806 35.8304 35.2433 35.6882 35.4131 35.5434C35.9746 35.0646 36.6183 34.5524 37.3859 34.0735C40.2068 32.3365 42.1288 31.4275 43.4981 30.7504C43.7811 30.6138 44.0442 30.4889 44.2934 30.3746C44.2938 30.3745 44.2942 30.3743 44.2947 30.3741C45.2358 29.944 45.9603 29.6623 46.6738 29.5677C47.9457 29.404 48.9928 29.347 50.2621 29.5051C52.0067 29.7118 54.2789 29.4011 55.8269 28.9897C55.9115 28.9663 55.9983 28.9418 56.0865 28.9182C56.2197 28.8825 56.3573 28.8466 56.5 28.8111C57.5614 28.5503 58.884 28.2817 60.7827 28.3C62.5705 28.3223 64.0967 28.6949 65.3884 29.1371C65.7611 29.2647 66.1113 29.398 66.4443 29.5301C67.287 29.8647 68.0203 30.1972 68.7313 30.4706C73.1364 32.2134 75.1415 34.2325 76.2081 35.5282C77.0244 36.5583 77.2923 37.2907 77.4814 37.8086C77.5378 37.9658 77.5855 38.1055 77.6364 38.2302C78.0867 39.3415 78.5817 40.2311 79.0976 41.3295C79.2111 41.5729 79.3249 41.8276 79.4363 42.0956C79.8071 42.991 80.1861 43.5704 80.5295 44.0107C80.6789 44.2029 80.8193 44.3684 80.9511 44.5258C80.9537 44.5286 80.9562 44.5314 80.9588 44.5343C80.9772 44.5562 80.9949 44.5783 81.0129 44.6001C81.0264 44.6164 81.041 44.6323 81.0545 44.6487C81.0635 44.6533 81.0702 44.6581 81.0758 44.6614C81.0801 44.664 81.0834 44.6661 81.0855 44.6675C81.0861 44.6677 81.0867 44.6678 81.0873 44.6679C81.1255 44.6926 81.149 44.7189 81.1538 44.7242C81.1623 44.7335 81.1685 44.7425 81.1719 44.7469C81.19 44.7703 81.2097 44.8024 81.2224 44.8239C81.255 44.8793 81.3096 44.9765 81.3898 45.129C81.4707 45.2564 81.5589 45.3738 81.6683 45.5222C81.6753 45.5315 81.6822 45.5408 81.6892 45.5501C81.7957 45.6952 81.9183 45.8662 82.0579 46.0886C82.1854 46.2917 82.0521 46.5818 81.763 46.7315C81.4737 46.8813 81.1434 46.8433 81.0221 46.6518C80.8961 46.4525 80.7857 46.3006 80.6835 46.1626C80.6769 46.1539 80.6703 46.1453 80.6637 46.1366C80.557 45.993 80.455 45.8584 80.3592 45.7071C80.3272 45.6564 80.2955 45.6036 80.2667 45.5538C80.208 45.4677 80.1331 45.3739 80.041 45.2635C80.0225 45.2413 80.004 45.2181 79.9844 45.1948C79.8582 45.0455 79.7098 44.8736 79.5542 44.6749C79.1885 44.2089 78.7918 43.5989 78.4112 42.6658C78.3108 42.4208 78.2069 42.1853 78.1015 41.9562C77.6124 40.899 77.11 39.9829 76.6546 38.8427C76.5918 38.6863 76.5382 38.5283 76.4782 38.3597C76.2977 37.8617 76.0794 37.2556 75.3582 36.3382C74.3854 35.1512 72.5191 33.2422 68.3097 31.5746C67.5927 31.2986 66.8406 30.9565 66.0165 30.6294C65.7027 30.5047 65.3769 30.383 65.0406 30.2674C63.8178 29.8471 62.3961 29.4999 60.7333 29.4809C58.831 29.4656 57.5472 29.7516 56.5 30.0209C56.4308 30.039 56.3627 30.0572 56.2956 30.0753C56.2582 30.0857 56.2209 30.0962 56.1836 30.1068C56.1373 30.1196 56.0914 30.1323 56.046 30.145C54.4532 30.5726 52.1386 30.8965 50.2786 30.6668C49.1088 30.5153 48.14 30.5632 46.9228 30.7155C46.3241 30.7937 45.7279 31.0236 44.8401 31.4258C44.5911 31.5392 44.3196 31.6658 44.02 31.8103C42.6797 32.4725 40.8059 33.3588 38.0617 35.0404C37.3468 35.4844 36.7548 35.9538 36.218 36.4096C36.0514 36.5512 35.8891 36.6918 35.7306 36.8306C35.0705 37.4087 34.4651 37.9529 33.7798 38.3716C33.2166 38.7134 32.0451 39.5829 31.012 40.8037C29.9664 42.0228 29.1318 43.5431 28.9946 44.7935C28.9799 44.9231 28.9653 45.0533 28.9521 45.1834C28.8365 46.3028 28.8044 47.4395 29.1171 48.4057C30.2983 50.7083 30.4366 53.0327 30.5267 55.5C30.6001 57.9738 30.673 60.5621 31.228 62.5764C31.242 62.6285 31.2563 62.681 31.2708 62.7333C32.5687 67.3605 35.0781 70.1431 35.8564 71.0321C35.8943 71.0744 35.929 71.1126 35.9602 71.147C35.988 71.1777 36.0137 71.205 36.036 71.2294C36.3703 71.596 36.7053 71.8859 37.0615 72.1791C37.081 72.1951 37.1006 72.2111 37.1201 72.227C37.4986 72.5362 37.8989 72.8518 38.3501 73.2519C40.0331 74.7378 41.6236 75.6971 43.0395 76.4161C43.3021 76.5489 43.5599 76.6746 43.8135 76.7923C43.8143 76.7927 43.815 76.7931 43.8157 76.7934C44.926 77.3079 45.9459 77.6931 46.9124 78.0448C48.6834 78.682 49.9522 78.8906 50.9333 79.0102C51.2438 79.0467 51.5256 79.0719 51.7953 79.0924C52.379 79.1363 52.8847 79.1576 53.407 79.1989C54.3883 79.2753 55.2986 79.2437 56.1902 79.1748C56.2699 79.1686 56.3495 79.1628 56.4292 79.156C56.4528 79.154 56.4764 79.152 56.5 79.1499C57.4457 79.0668 58.3644 78.9471 59.3316 78.8473C59.5622 78.8234 59.7836 79.0642 59.8274 79.3877C59.8708 79.7109 59.7113 79.9966 59.4694 80.0218C58.4652 80.1259 57.5096 80.25 56.5001 80.3356C56.5 80.3356 56.5 80.3356 56.5 80.3356C56.4166 80.3427 56.3329 80.35 56.2491 80.3564C55.3222 80.427 54.3572 80.458 53.3158 80.3769C52.7904 80.3353 52.294 80.3139 51.6969 80.2689C51.4126 80.2472 51.1096 80.2205 50.7698 80.1803C49.7309 80.0527 48.3915 79.8324 46.5253 79.1623C45.5286 78.8001 44.4787 78.4029 43.32 77.8663C43.054 77.7429 42.7814 77.6113 42.504 77.4711C41.022 76.7184 39.3525 75.7116 37.582 74.151C37.1359 73.7559 36.7397 73.4427 36.3459 73.1201C36.324 73.1019 36.302 73.0837 36.2802 73.0655C35.9112 72.761 35.5411 72.4414 35.1713 72.0362C35.1219 71.982 35.0594 71.9124 34.9843 71.8287C34.1686 70.8966 31.527 67.9766 30.1466 63.0955C30.1426 63.0804 30.1386 63.0653 30.1346 63.0501C29.2641 59.7909 29.2828 57.9108 28.9073 56.4987C28.8193 56.1434 28.7575 55.8108 28.7144 55.5C28.6224 54.8321 28.614 54.2873 28.6279 53.8044C28.6318 53.6702 28.6365 53.5435 28.6427 53.4229C28.6696 52.9033 28.7051 52.4908 28.6814 52.0706C28.6165 50.7963 28.4115 49.8357 27.9869 48.5284C27.6293 47.4154 27.6741 46.1136 27.7977 44.9693C27.7978 44.9676 27.798 44.9659 27.7982 44.9642C27.8125 44.8283 27.828 44.6945 27.8432 44.5635ZM83.9346 49.1042C83.989 49.3435 83.7725 49.6 83.4557 49.676C83.1384 49.7519 82.8431 49.6292 82.792 49.4029C82.6695 48.8592 82.5282 48.3217 82.3665 47.7855C82.2992 47.5617 82.4885 47.2914 82.7949 47.1801C83.1015 47.0691 83.413 47.1696 83.485 47.4063C83.6557 47.9689 83.805 48.5333 83.9346 49.1042ZM21.9309 43.4829C21.9862 43.1576 22.3002 42.9374 22.6229 42.9937C22.9454 43.0503 23.157 43.3517 23.1036 43.6641C23.0753 43.83 23.0353 44.1041 22.9901 44.4724C22.7462 46.3518 22.4342 50.7121 23.1978 55.5C23.4975 57.4685 23.9512 59.5052 24.5311 61.5127C24.6988 62.0942 24.8702 62.6087 25.0442 63.0911C25.8412 65.1575 27.0889 66.5465 29.1038 70.0515C34.5614 79.3555 45.2102 85.7862 56.5 85.9061C63.0813 86.0425 69.7505 84.0502 74.9634 80.1315C79.0247 77.0932 82.4641 73.3383 84.8601 68.9602C87.1274 65.4438 89.0976 57.9003 88.9637 56.0169C88.9786 55.7302 89.2506 55.4979 89.5769 55.5C89.9029 55.5023 90.1594 55.7488 90.1443 56.0487C90.2852 57.9916 88.2659 65.8334 85.9212 69.4838C83.4398 74.0358 79.8783 77.9309 75.6782 81.0746C70.265 85.1438 63.4198 87.4177 56.5 87.5315C44.7264 87.866 32.8444 81.5818 26.8568 71.3871C24.66 67.5534 24.7528 65.6057 23.9342 63.4975C23.7523 62.9931 23.5724 62.4567 23.3959 61.8447C22.7824 59.7227 22.3086 57.5707 22.0016 55.5C21.253 50.6703 21.5604 46.2945 21.8093 44.3526C21.8573 43.9593 21.9003 43.6638 21.9309 43.4829ZM30.7788 31.2581C33.3122 28.6679 37.7075 25.8295 41.8945 24.2873C43.9257 23.51 45.8746 22.9836 47.4454 22.6286C49.884 22.0867 51.4861 22.176 53.0361 22.3066C53.0527 22.308 53.0693 22.3094 53.0858 22.3108C54.1358 22.4089 55.1728 22.5382 56.5 22.6511C57.129 22.7056 57.8121 22.7581 58.5971 22.8158C61.0584 22.9869 64.4775 23.2878 67.857 24.1868C67.8596 24.1877 67.8622 24.1885 67.8648 24.1893C71.2025 25.0425 74.774 25.9923 76.9433 27.479C84.4966 32.725 86.5704 38.4363 87.2924 41.0013C88.5207 45.5532 91.0559 50.5481 89.6435 55.3467C89.3295 55.8551 88.4445 55.0054 88.6576 54.0996C88.6633 54.0665 88.6689 54.0334 88.6745 54.0003C88.7255 53.6826 88.7625 53.4022 88.7739 53.0112C88.7615 52.4484 88.7134 52.0284 88.6645 51.6484C88.7319 50.6164 87.0787 43.8261 86.1729 41.3571C85.4774 38.9552 82.4658 34.4893 75.4955 29.6554C73.5585 28.3243 70.8643 26.1885 67.5697 25.3351C67.5608 25.3327 67.5519 25.3304 67.543 25.328C64.2975 24.4648 60.9568 24.1656 58.5339 23.9966C57.7768 23.9403 57.1129 23.8888 56.5 23.8355C55.1315 23.7185 54.07 23.5848 53.021 23.4853C53.0063 23.4838 52.9914 23.4823 52.9766 23.4808C51.4862 23.3537 50.0037 23.2712 47.7295 23.7749C46.1747 24.1252 44.2662 24.644 42.2878 25.403C38.2538 26.895 34.0583 29.6015 31.6273 32.0811C31.4056 32.3012 31.036 32.3019 30.7973 32.079C30.559 31.8562 30.5487 31.4872 30.7788 31.2581ZM25.7816 25.8525C33.2287 17.0234 45.5052 12.707 56.5 13.9787C57.33 14.0651 58.1448 14.1785 58.9581 14.3186C62.02 14.5109 66.2811 15.222 70.3294 16.6484C70.375 16.6647 70.4205 16.681 70.466 16.6974C74.4738 18.0852 78.1891 20.142 80.6883 21.8495C89.623 28.0157 92.8058 34.4892 93.8311 37.6225C94.7233 40.6546 94.9519 41.45 95.4057 42.6359C95.4171 42.6685 95.4284 42.7011 95.4397 42.7336C95.4414 42.7354 95.4431 42.7373 95.4448 42.7391C95.4738 42.7747 95.4943 42.8061 95.5042 42.8225C95.5244 42.8559 95.5375 42.8843 95.5425 42.8949C95.5539 42.9195 95.5616 42.9407 95.5645 42.9483C95.5763 42.979 95.5887 43.0146 95.5961 43.0377C95.6665 43.2523 95.861 43.9335 95.9771 44.4817C96.0973 45.0434 96.1462 45.4558 96.1884 45.887C96.1926 45.9307 96.1966 45.9744 96.2006 46.0181C96.2362 46.4073 96.2714 46.8305 96.3292 47.4357C96.3643 47.8057 96.1219 48.118 95.7967 48.1395C95.4714 48.1602 95.1873 47.8924 95.1531 47.5356C95.0941 46.9191 95.0574 46.4828 95.0224 46.104C95.0186 46.062 95.0147 46.02 95.0108 45.9778C94.9708 45.5758 94.9271 45.2244 94.8244 44.7416C94.648 44.0522 94.4753 43.5485 94.3124 43.0934C93.859 41.903 93.5997 41.0133 92.6885 37.9309C91.7291 35.0575 88.7789 28.8932 80.0451 22.84C77.6109 21.175 73.993 19.1705 70.0961 17.819C70.0505 17.8031 70.0048 17.7872 69.9591 17.7714C66.0174 16.3808 61.8748 15.6866 58.8988 15.4981C58.0986 15.4433 57.3037 15.4138 56.5 15.4084C45.6437 15.3484 35.2596 19.6562 26.6368 26.6693C25.0613 28.2158 23.7239 29.7352 22.5751 31.2169C19.2154 35.5875 17.3734 39.6003 16.7824 43.6248C16.6662 44.5036 16.0585 46.7366 15.7381 50.0144C15.6458 50.9743 15.5797 52.027 15.5649 53.1664C15.5553 53.9115 15.5676 54.6844 15.608 55.5C15.7189 57.7282 16.0464 60.2088 16.7294 62.8181C16.9239 63.5602 17.1256 64.2247 17.331 64.8447C18.2701 67.477 18.964 69.5948 21.556 74.1964C24.567 80.0361 32.7655 87.509 38.0879 89.9746C40.6687 91.3327 42.2177 91.9402 43.2963 92.3914C43.5986 92.5147 43.8659 92.622 44.1126 92.7179C44.7573 92.9676 45.2583 93.1495 45.9336 93.3494C49.6767 94.4258 52.7068 94.7364 56.5 94.5999C57.6358 94.5514 58.8313 94.4511 60.1407 94.2751C60.4957 94.2275 60.832 94.4446 60.8933 94.7659C60.9539 95.087 60.7052 95.3937 60.3397 95.4435C58.9597 95.6303 57.6984 95.7356 56.5 95.785C52.6244 95.9194 49.4831 95.5989 45.6126 94.4864C44.8878 94.2721 44.3379 94.0715 43.6627 93.8096C43.4129 93.7123 43.1476 93.6062 42.853 93.4861C41.7623 93.0297 40.1869 92.4129 37.5459 91.0243C32.0818 88.4955 23.6494 80.8189 20.5477 74.8142C17.8972 70.1155 17.1928 67.9708 16.2238 65.2655C16.0106 64.6246 15.7998 63.9373 15.5961 63.1637C14.8763 60.4282 14.5346 57.8273 14.4223 55.5C14.3836 54.6946 14.3715 53.9288 14.3802 53.1926C14.3942 52.0178 14.4605 50.9359 14.5542 49.9486C14.892 46.4991 15.4907 44.3362 15.5864 43.5592C16.1996 39.267 18.1889 34.9543 21.691 30.4262C22.8631 28.9207 24.2147 27.3931 25.7816 25.8525ZM79.7629 87.8487C79.4646 88.0632 79.062 88.0187 78.8679 87.7558C78.6738 87.4927 78.7526 87.1165 79.0415 86.9091C80.5657 85.8115 81.5837 84.9275 82.3654 84.2215C83.799 82.9048 84.4389 82.2174 85.439 81.2304C88.0079 78.6657 90.1052 75.797 91.6493 73.0188C94.2415 68.3923 95.2588 64.1026 95.7169 61.8658C95.7899 61.5136 96.1043 61.2694 96.426 61.3246C96.7473 61.3784 96.9523 61.7217 96.877 62.0871C96.4079 64.381 95.367 68.7798 92.7101 73.541C91.1192 76.4139 88.9553 79.3872 86.2928 82.0486C85.2937 83.0356 84.6716 83.7041 83.2311 85.0337C82.4291 85.7613 81.3717 86.6876 79.7629 87.8487Z" fill="#5240FF"/>
<path d="M34.9888 47.5602C34.3129 38.9634 41.1067 31.6144 49.73 31.6144H65.7881V31.6144C75.1038 30.7886 82.7652 38.8453 81.4722 48.1078L79.4054 62.914C78.1348 72.0156 69.8209 78.4313 60.6946 77.3528V77.3528C58.8976 77.1405 57.0781 77.2183 55.3058 77.5832L38.1553 81.1148C33.429 82.088 29 78.4781 29 73.6526V73.6526C29 72.9689 29.092 72.2883 29.2736 71.6291L34.5032 52.6465C34.9589 50.9921 35.1233 49.2709 34.9888 47.5602V47.5602Z" fill="#1C265D"/>
<g filter="url(#filter0_dd_288_4858)">
<path d="M73.3337 34.6667C74.438 34.6669 75.3335 35.5624 75.3337 36.6667C75.3335 37.771 74.438 38.6665 73.3337 38.6667H49.1667C48.998 38.6667 48.9597 38.6669 48.9353 38.6677C47.8822 38.7021 47.0363 39.5482 47.0017 40.6013C47.0009 40.6257 47.0007 40.6634 47.0007 40.8327C47.0007 41.0026 47.0009 41.0407 47.0017 41.0651C47.0362 42.1184 47.882 42.9642 48.9353 42.9987C48.9597 42.9995 48.998 42.9997 49.1667 42.9997H62.5007V46.9997H56.2556C53.8993 45.7243 51.2011 44.9998 48.3337 44.9997C47.1495 44.9997 45.9939 45.1242 44.8796 45.3591C43.7677 44.3076 43.0573 42.8361 43.0036 41.196C43.0002 41.0897 43.0007 40.9715 43.0007 40.8327C43.0007 40.6942 43.0002 40.5765 43.0036 40.4704C43.1072 37.3109 45.6448 34.773 48.8044 34.6696C48.9105 34.6662 49.0283 34.6667 49.1667 34.6667H73.3337Z" fill="#D746E0"/>
<path d="M46 45.1631C45.3193 45.2584 44.6517 45.3943 44 45.5693V40H46V45.1631Z" fill="#D746E0"/>
<path d="M73.333 41.7934C73.7476 41.7934 74.2599 41.7895 74.6963 41.8481C75.1904 41.9145 75.8741 42.0923 76.4541 42.6723C77.0341 43.2523 77.2119 43.936 77.2783 44.4301C77.3369 44.8665 77.333 45.3787 77.333 45.7934V50.7934H70.333C69.3081 50.7934 69.0868 50.8027 68.9424 50.8315C68.1495 50.9895 67.529 51.6098 67.3711 52.4028C67.3424 52.5473 67.333 52.7691 67.333 53.7934C67.333 54.8183 67.3423 55.0395 67.3711 55.184C67.529 55.9769 68.1495 56.5973 68.9424 56.7553C69.0868 56.784 69.3081 56.7934 70.333 56.7934H77.333V61.7934C77.333 62.2081 77.3369 62.7203 77.2783 63.1567C77.2118 63.6507 77.0339 64.3346 76.4541 64.9145C75.8742 65.4942 75.1903 65.6723 74.6963 65.7387C74.2599 65.7973 73.7476 65.7934 73.333 65.7934H64.4853C64.8215 64.4737 65 63.0908 65 61.6664C64.9999 52.4618 57.5377 45.0004 48.333 45.0004C46.591 45.0005 44.9114 45.2673 43.333 45.7631V41.7934H73.333ZM67.6533 58.4223C67.6652 58.4278 67.6775 58.4325 67.6894 58.4379C67.6775 58.4325 67.6652 58.4278 67.6533 58.4223ZM67.3418 58.2602C67.3654 58.2738 67.3891 58.2871 67.4131 58.3002C67.3891 58.2871 67.3654 58.2738 67.3418 58.2602ZM67.0576 58.0805C67.079 58.0953 67.1004 58.1101 67.1221 58.1244C67.1004 58.1101 67.079 58.0953 67.0576 58.0805ZM66.791 57.8793C66.8101 57.8951 66.8292 57.9108 66.8486 57.9262C66.8292 57.9108 66.8101 57.8951 66.791 57.8793ZM66.3389 57.4448C66.3535 57.4613 66.3688 57.4773 66.3838 57.4936C66.3688 57.4773 66.3535 57.4613 66.3389 57.4448ZM66.1279 57.185C66.1417 57.2034 66.1558 57.2215 66.1699 57.2397C66.1558 57.2215 66.1417 57.2034 66.1279 57.185ZM65.959 56.9418C65.9636 56.9491 65.9689 56.956 65.9736 56.9633C65.9613 56.9443 65.9495 56.925 65.9375 56.9057L65.959 56.9418ZM66.2881 50.2006C66.2352 50.2629 66.1838 50.3265 66.1348 50.392C66.1839 50.3266 66.2351 50.2628 66.2881 50.2006ZM66.5049 49.9643C66.4413 50.0278 66.3804 50.0938 66.3213 50.1616C66.3803 50.0941 66.4415 50.0286 66.5049 49.9653V49.9643Z" fill="#D746E0"/>
<ellipse cx="11.6667" cy="11.6667" rx="11.6667" ry="11.6667" transform="matrix(-1 0 0 1 60 50)" stroke="#D746E0" stroke-width="4"/>
<path d="M48.3333 56.6667C48.9899 56.6667 49.6401 56.796 50.2467 57.0473C50.8534 57.2986 51.4046 57.6669 51.8689 58.1312C52.3332 58.5954 52.7015 59.1466 52.9527 59.7533C53.204 60.3599 53.3333 61.0101 53.3333 61.6667" stroke="#D746E0" stroke-width="4" stroke-linecap="round"/>
<path d="M33.3333 76.6667L38.3333 71.6667" stroke="#D746E0" stroke-width="4" stroke-linecap="round"/>
</g>
<path d="M89.5192 48.6867C89.6571 48.2028 90.3429 48.2028 90.4808 48.6867L91.8303 53.4203C91.8792 53.5915 92.0154 53.7239 92.1879 53.7678L97.0944 55.0154C97.5968 55.1432 97.5968 55.8568 97.0944 55.9846L92.1879 57.2322C92.0154 57.2761 91.8792 57.4085 91.8303 57.5797L90.4808 62.3133C90.3429 62.7972 89.6571 62.7972 89.5192 62.3133L88.1697 57.5797C88.1208 57.4085 87.9846 57.2761 87.8121 57.2322L82.9056 55.9846C82.4032 55.8568 82.4032 55.1432 82.9056 55.0154L87.8121 53.7678C87.9846 53.7239 88.1208 53.5915 88.1697 53.4203L89.5192 48.6867Z" fill="#39D6A6"/>
<path d="M21.5192 48.6867C21.6571 48.2028 22.3429 48.2028 22.4808 48.6867L23.8303 53.4203C23.8792 53.5915 24.0154 53.7239 24.1879 53.7678L29.0944 55.0154C29.5968 55.1432 29.5968 55.8568 29.0944 55.9846L24.1879 57.2322C24.0154 57.2761 23.8792 57.4085 23.8303 57.5797L22.4808 62.3133C22.3429 62.7972 21.6571 62.7972 21.5192 62.3133L20.1697 57.5797C20.1208 57.4085 19.9846 57.2761 19.8121 57.2322L14.9056 55.9846C14.4032 55.8568 14.4032 55.1432 14.9056 55.0154L19.8121 53.7678C19.9846 53.7239 20.1208 53.5915 20.1697 53.4203L21.5192 48.6867Z" fill="#39D6A6"/>
<defs>
<filter id="filter0_dd_288_4858" x="20.6667" y="30" width="61.3333" height="61.3333" filterUnits="userSpaceOnUse" color-interpolation-filters="sRGB">
<feFlood flood-opacity="0" result="BackgroundImageFix"/>
<feColorMatrix in="SourceAlpha" type="matrix" values="0 0 0 0 0 0 0 0 0 0 0 0 0 0 0 0 0 0 127 0" result="hardAlpha"/>
<feOffset dx="-2" dy="4"/>
<feGaussianBlur stdDeviation="2"/>
<feComposite in2="hardAlpha" operator="out"/>
<feColorMatrix type="matrix" values="0 0 0 0 0 0 0 0 0 0 0 0 0 0 0 0 0 0 0.5 0"/>
<feBlend mode="normal" in2="BackgroundImageFix" result="effect1_dropShadow_288_4858"/>
<feColorMatrix in="SourceAlpha" type="matrix" values="0 0 0 0 0 0 0 0 0 0 0 0 0 0 0 0 0 0 127 0" result="hardAlpha"/>
<feOffset dx="0.5" dy="1.5"/>
<feComposite in2="hardAlpha" operator="out"/>
<feColorMatrix type="matrix" values="0 0 0 0 0.788235 0 0 0 0 0.137255 0 0 0 0 0.827451 0 0 0 1 0"/>
<feBlend mode="normal" in2="effect1_dropShadow_288_4858" result="effect2_dropShadow_288_4858"/>
<feBlend mode="normal" in="SourceGraphic" in2="effect2_dropShadow_288_4858" result="shape"/>
</filter>
</defs>
</svg>
