<svg width="112" height="110" viewBox="0 0 112 110" fill="none" xmlns="http://www.w3.org/2000/svg">
<path d="M12.0433 22.8507C17.872 22.2866 22.5305 17.7562 23.2568 11.9455L23.3043 11.5658C24.3926 2.85909 33.6198 -2.28808 41.6 1.36L48.5222 4.52445C53.2711 6.69535 58.7289 6.69535 63.4778 4.52445L70.4665 1.32959C78.3073 -2.25476 87.3408 2.96885 88.1455 11.5524V11.5524C88.7075 17.5462 93.5151 22.2983 99.5089 22.8602V22.8602C108.102 23.6658 113.52 32.6196 110.12 40.5522L107.039 47.7421C105.053 52.3768 105.053 57.6232 107.039 62.2579L110.395 70.0883C113.668 77.7247 108.583 86.3417 100.316 87.1684V87.1684C94.7452 87.7255 90.2539 91.9749 89.3897 97.5061L89.2475 98.4157C87.8681 107.244 78.4403 112.316 70.3135 108.6L63.8478 105.645C58.864 103.366 53.136 103.366 48.1522 105.645L41.9198 108.494C33.4765 112.354 23.6258 107.432 21.6419 98.3628L21.2218 96.4424C20.1338 91.4686 15.9859 87.7485 10.9234 87.2061V87.2061C3.00966 86.3582 -1.82678 78.0958 1.30845 70.7803L4.95343 62.2753C6.94452 57.6295 6.94452 52.3705 4.95343 47.7247L1.74504 40.2384C-1.5925 32.4508 3.61001 23.6668 12.0433 22.8507V22.8507Z" fill="white"/>
<path d="M16.3669 26.0129C21.6223 25.5043 25.8226 21.4196 26.4775 16.1803L26.5202 15.838C27.5015 7.98771 35.8211 3.34681 43.0164 6.63606L49.2577 9.48926C53.5395 11.4466 58.4605 11.4466 62.7422 9.48926L69.0436 6.60864C76.1131 3.37686 84.2581 8.08667 84.9837 15.8259V15.8259C85.4903 21.2302 89.8251 25.5148 95.2293 26.0215V26.0215C102.977 26.7478 107.862 34.8209 104.797 41.9733L102.019 48.456C100.228 52.6349 100.228 57.3651 102.019 61.544L105.045 68.6042C107.995 75.4895 103.411 83.2589 95.9568 84.0043V84.0043C90.9342 84.5066 86.8847 88.338 86.1054 93.3252L85.9773 94.1453C84.7335 102.106 76.2331 106.678 68.9056 103.328L63.0759 100.663C58.5823 98.609 53.4177 98.609 48.9241 100.663L43.3048 103.232C35.6919 106.712 26.8101 102.275 25.0214 94.0977L24.6426 92.3661C23.6616 87.8815 19.9217 84.5273 15.3572 84.0383V84.0383C8.22183 83.2738 3.8611 75.8241 6.68795 69.2281L9.9744 61.5597C11.7696 57.3708 11.7696 52.6292 9.9744 48.4403L7.08159 41.6904C4.07233 34.6688 8.76313 26.7487 16.3669 26.0129V26.0129Z" fill="#02837C"/>
<path d="M83.1292 60.0048C82.8452 61.2197 82.7312 62.8282 82.0782 63.9302C82.0692 63.9456 82.0602 63.9609 82.0511 63.9762C81.7866 64.4233 81.4728 64.855 81.0738 65.3573C81.0229 65.4212 80.9702 65.4861 80.9164 65.5523C80.4373 66.1393 79.8359 66.8429 78.9868 67.7396C76.158 70.7148 74.0122 73.035 73.2981 73.815C71.8858 75.3187 69.999 76.5724 67.2032 77.7483C66.9457 77.8553 66.6818 77.9589 66.4089 78.0627C66.1872 78.1471 65.9134 77.9653 65.7993 77.6596C65.6852 77.3538 65.7654 77.0438 65.9763 76.9636C66.2321 76.8665 66.4784 76.7685 66.7193 76.6688C66.7204 76.6683 66.7215 76.6679 66.7226 76.6674C69.415 75.5368 71.1766 74.3604 72.4908 72.9542C73.1877 72.1887 75.2737 69.9177 78.0486 67.0333C78.8707 66.175 79.4532 65.5003 79.9163 64.9403C79.9669 64.8788 80.0163 64.8188 80.0638 64.7599C80.0649 64.7586 80.0661 64.7572 80.0673 64.7559C80.4529 64.2768 80.7424 63.8836 80.9852 63.4781C80.9901 63.4694 80.995 63.4607 80.9999 63.452C81.6342 62.394 81.7081 60.8871 81.9718 59.7699C82.0237 59.5561 82.3227 59.4282 82.6437 59.4864C82.9643 59.5447 83.1834 59.7777 83.1292 60.0048ZM27.8432 44.5635C28.0084 43.0844 28.9719 41.3772 30.074 40.0895C31.1776 38.7794 32.4304 37.8383 33.0582 37.454C33.6723 37.0759 34.2405 36.5685 34.9237 35.9681C35.0806 35.8304 35.2433 35.6882 35.4131 35.5434C35.9746 35.0646 36.6183 34.5524 37.3859 34.0735C40.2068 32.3365 42.1288 31.4275 43.4981 30.7504C43.7811 30.6138 44.0442 30.4889 44.2934 30.3746C44.2938 30.3745 44.2942 30.3743 44.2947 30.3741C45.2358 29.944 45.9603 29.6623 46.6738 29.5677C47.9457 29.404 48.9928 29.347 50.2621 29.5051C52.0067 29.7118 54.2789 29.4011 55.8269 28.9897C55.9115 28.9663 55.9983 28.9418 56.0865 28.9182C56.2197 28.8825 56.3573 28.8466 56.5 28.8111C57.5614 28.5503 58.884 28.2817 60.7827 28.3C62.5705 28.3223 64.0967 28.6949 65.3884 29.1371C65.7611 29.2647 66.1113 29.398 66.4443 29.5301C67.287 29.8647 68.0203 30.1972 68.7313 30.4706C73.1364 32.2134 75.1415 34.2325 76.2081 35.5282C77.0244 36.5583 77.2923 37.2907 77.4814 37.8086C77.5378 37.9658 77.5855 38.1055 77.6364 38.2302C78.0867 39.3415 78.5817 40.2311 79.0976 41.3295C79.2111 41.5729 79.3249 41.8276 79.4363 42.0956C79.8071 42.991 80.1861 43.5704 80.5295 44.0107C80.6789 44.2029 80.8193 44.3684 80.9511 44.5258C80.9537 44.5286 80.9562 44.5314 80.9588 44.5343C80.9772 44.5562 80.9949 44.5783 81.0129 44.6001C81.0264 44.6164 81.041 44.6323 81.0545 44.6487C81.0635 44.6533 81.0702 44.6581 81.0758 44.6614C81.0801 44.664 81.0834 44.6661 81.0855 44.6675C81.0861 44.6677 81.0867 44.6678 81.0873 44.6679C81.1255 44.6926 81.149 44.7189 81.1538 44.7242C81.1623 44.7335 81.1685 44.7425 81.1719 44.7469C81.19 44.7703 81.2097 44.8024 81.2224 44.8239C81.255 44.8793 81.3096 44.9765 81.3898 45.129C81.4707 45.2564 81.5589 45.3738 81.6683 45.5222C81.6753 45.5315 81.6822 45.5408 81.6892 45.5501C81.7957 45.6952 81.9183 45.8662 82.0579 46.0886C82.1854 46.2917 82.0521 46.5818 81.763 46.7315C81.4737 46.8813 81.1434 46.8433 81.0221 46.6518C80.8961 46.4525 80.7857 46.3006 80.6835 46.1626C80.6769 46.1539 80.6703 46.1453 80.6637 46.1366C80.557 45.993 80.455 45.8584 80.3592 45.7071C80.3272 45.6564 80.2955 45.6036 80.2667 45.5538C80.208 45.4677 80.1331 45.3739 80.041 45.2635C80.0225 45.2413 80.004 45.2181 79.9844 45.1948C79.8582 45.0455 79.7098 44.8736 79.5542 44.6749C79.1885 44.2089 78.7918 43.5989 78.4112 42.6658C78.3108 42.4208 78.2069 42.1853 78.1015 41.9562C77.6124 40.899 77.11 39.9829 76.6546 38.8427C76.5918 38.6863 76.5382 38.5283 76.4782 38.3597C76.2977 37.8617 76.0794 37.2556 75.3582 36.3382C74.3854 35.1512 72.5191 33.2422 68.3097 31.5746C67.5927 31.2986 66.8406 30.9565 66.0165 30.6294C65.7027 30.5047 65.3769 30.383 65.0406 30.2674C63.8178 29.8471 62.3961 29.4999 60.7333 29.4809C58.831 29.4656 57.5472 29.7516 56.5 30.0209C56.4308 30.039 56.3627 30.0572 56.2956 30.0753C56.2582 30.0857 56.2209 30.0962 56.1836 30.1068C56.1373 30.1196 56.0914 30.1323 56.046 30.145C54.4532 30.5726 52.1386 30.8965 50.2786 30.6668C49.1088 30.5153 48.14 30.5632 46.9228 30.7155C46.3241 30.7937 45.7279 31.0236 44.8401 31.4258C44.5911 31.5392 44.3196 31.6658 44.02 31.8103C42.6797 32.4725 40.8059 33.3588 38.0617 35.0404C37.3468 35.4844 36.7548 35.9538 36.218 36.4096C36.0514 36.5512 35.8891 36.6918 35.7306 36.8306C35.0705 37.4087 34.4651 37.9529 33.7798 38.3716C33.2166 38.7134 32.0451 39.5829 31.012 40.8037C29.9664 42.0228 29.1318 43.5431 28.9946 44.7935C28.9799 44.9231 28.9653 45.0533 28.9521 45.1834C28.8365 46.3028 28.8044 47.4395 29.1171 48.4057C30.2983 50.7083 30.4366 53.0327 30.5267 55.5C30.6001 57.9738 30.673 60.5621 31.228 62.5764C31.242 62.6285 31.2563 62.681 31.2708 62.7333C32.5687 67.3605 35.0781 70.1431 35.8564 71.0321C35.8943 71.0744 35.929 71.1126 35.9602 71.147C35.988 71.1777 36.0137 71.205 36.036 71.2294C36.3703 71.596 36.7053 71.8859 37.0615 72.1791C37.081 72.1951 37.1006 72.2111 37.1201 72.227C37.4986 72.5362 37.8989 72.8518 38.3501 73.2519C40.0331 74.7378 41.6236 75.6971 43.0395 76.4161C43.3021 76.5489 43.5599 76.6746 43.8135 76.7923C43.8143 76.7927 43.815 76.7931 43.8157 76.7934C44.926 77.3079 45.9459 77.6931 46.9124 78.0448C48.6834 78.682 49.9522 78.8906 50.9333 79.0102C51.2438 79.0467 51.5256 79.0719 51.7953 79.0924C52.379 79.1363 52.8847 79.1576 53.407 79.1989C54.3883 79.2753 55.2986 79.2437 56.1902 79.1748C56.2699 79.1686 56.3495 79.1628 56.4292 79.156C56.4528 79.154 56.4764 79.152 56.5 79.1499C57.4457 79.0668 58.3644 78.9471 59.3316 78.8473C59.5622 78.8234 59.7836 79.0642 59.8274 79.3877C59.8708 79.7109 59.7113 79.9966 59.4694 80.0218C58.4652 80.1259 57.5096 80.25 56.5001 80.3356C56.5 80.3356 56.5 80.3356 56.5 80.3356C56.4166 80.3427 56.3329 80.35 56.2491 80.3564C55.3222 80.427 54.3572 80.458 53.3158 80.3769C52.7904 80.3353 52.294 80.3139 51.6969 80.2689C51.4126 80.2472 51.1096 80.2205 50.7698 80.1803C49.7309 80.0527 48.3915 79.8324 46.5253 79.1623C45.5286 78.8001 44.4787 78.4029 43.32 77.8663C43.054 77.7429 42.7814 77.6113 42.504 77.4711C41.022 76.7184 39.3525 75.7116 37.582 74.151C37.1359 73.7559 36.7397 73.4427 36.3459 73.1201C36.324 73.1019 36.302 73.0837 36.2802 73.0655C35.9112 72.761 35.5411 72.4414 35.1713 72.0362C35.1219 71.982 35.0594 71.9124 34.9843 71.8287C34.1686 70.8966 31.527 67.9766 30.1466 63.0955C30.1426 63.0804 30.1386 63.0653 30.1346 63.0501C29.2641 59.7909 29.2828 57.9108 28.9073 56.4987C28.8193 56.1434 28.7575 55.8108 28.7144 55.5C28.6224 54.8321 28.614 54.2873 28.6279 53.8044C28.6318 53.6702 28.6365 53.5435 28.6427 53.4229C28.6696 52.9033 28.7051 52.4908 28.6814 52.0706C28.6165 50.7963 28.4115 49.8357 27.9869 48.5284C27.6293 47.4154 27.6741 46.1136 27.7977 44.9693C27.7978 44.9676 27.798 44.9659 27.7982 44.9642C27.8125 44.8283 27.828 44.6945 27.8432 44.5635ZM83.9346 49.1042C83.989 49.3435 83.7725 49.6 83.4557 49.676C83.1384 49.7519 82.8431 49.6292 82.792 49.4029C82.6695 48.8592 82.5282 48.3217 82.3665 47.7855C82.2992 47.5617 82.4885 47.2914 82.7949 47.1801C83.1015 47.0691 83.413 47.1696 83.485 47.4063C83.6557 47.9689 83.805 48.5333 83.9346 49.1042ZM21.9309 43.4829C21.9862 43.1576 22.3002 42.9374 22.6229 42.9937C22.9454 43.0503 23.157 43.3517 23.1036 43.6641C23.0753 43.83 23.0353 44.1041 22.9901 44.4724C22.7462 46.3518 22.4342 50.7121 23.1978 55.5C23.4975 57.4685 23.9512 59.5052 24.5311 61.5127C24.6988 62.0942 24.8702 62.6087 25.0442 63.0911C25.8412 65.1575 27.0889 66.5465 29.1038 70.0515C34.5614 79.3555 45.2102 85.7862 56.5 85.9061C63.0813 86.0425 69.7505 84.0502 74.9634 80.1315C79.0247 77.0932 82.4641 73.3383 84.8601 68.9602C87.1274 65.4438 89.0976 57.9003 88.9637 56.0169C88.9786 55.7302 89.2506 55.4979 89.5769 55.5C89.9029 55.5023 90.1594 55.7488 90.1443 56.0487C90.2852 57.9916 88.2659 65.8334 85.9212 69.4838C83.4398 74.0358 79.8783 77.9309 75.6782 81.0746C70.265 85.1438 63.4198 87.4177 56.5 87.5315C44.7264 87.866 32.8444 81.5818 26.8568 71.3871C24.66 67.5534 24.7528 65.6057 23.9342 63.4975C23.7523 62.9931 23.5724 62.4567 23.3959 61.8447C22.7824 59.7227 22.3086 57.5707 22.0016 55.5C21.253 50.6703 21.5604 46.2945 21.8093 44.3526C21.8573 43.9593 21.9003 43.6638 21.9309 43.4829ZM30.7788 31.2581C33.3122 28.6679 37.7075 25.8295 41.8945 24.2873C43.9257 23.51 45.8746 22.9836 47.4454 22.6286C49.884 22.0867 51.4861 22.176 53.0361 22.3066C53.0527 22.308 53.0693 22.3094 53.0858 22.3108C54.1358 22.4089 55.1728 22.5382 56.5 22.6511C57.129 22.7056 57.8121 22.7581 58.5971 22.8158C61.0584 22.9869 64.4775 23.2878 67.857 24.1868C67.8596 24.1877 67.8622 24.1885 67.8648 24.1893C71.2025 25.0425 74.774 25.9923 76.9433 27.479C84.4966 32.725 86.5704 38.4363 87.2924 41.0013C88.5207 45.5532 91.0559 50.5481 89.6435 55.3467C89.3295 55.8551 88.4445 55.0054 88.6576 54.0996C88.6633 54.0665 88.6689 54.0334 88.6745 54.0003C88.7255 53.6826 88.7625 53.4022 88.7739 53.0112C88.7615 52.4484 88.7134 52.0284 88.6645 51.6484C88.7319 50.6164 87.0787 43.8261 86.1729 41.3571C85.4774 38.9552 82.4658 34.4893 75.4955 29.6554C73.5585 28.3243 70.8643 26.1885 67.5697 25.3351C67.5608 25.3327 67.5519 25.3304 67.543 25.328C64.2975 24.4648 60.9568 24.1656 58.5339 23.9966C57.7768 23.9403 57.1129 23.8888 56.5 23.8355C55.1315 23.7185 54.07 23.5848 53.021 23.4853C53.0063 23.4838 52.9914 23.4823 52.9766 23.4808C51.4862 23.3537 50.0037 23.2712 47.7295 23.7749C46.1747 24.1252 44.2662 24.644 42.2878 25.403C38.2538 26.895 34.0583 29.6015 31.6273 32.0811C31.4056 32.3012 31.036 32.3019 30.7973 32.079C30.559 31.8562 30.5487 31.4872 30.7788 31.2581ZM25.7816 25.8525C33.2287 17.0234 45.5052 12.707 56.5 13.9787C57.33 14.0651 58.1448 14.1785 58.9581 14.3186C62.02 14.5109 66.2811 15.222 70.3294 16.6484C70.375 16.6647 70.4205 16.681 70.466 16.6974C74.4738 18.0852 78.1891 20.142 80.6883 21.8495C89.623 28.0157 92.8058 34.4892 93.8311 37.6225C94.7233 40.6546 94.9519 41.45 95.4057 42.6359C95.4171 42.6685 95.4284 42.7011 95.4397 42.7336C95.4414 42.7354 95.4431 42.7373 95.4448 42.7391C95.4738 42.7747 95.4943 42.8061 95.5042 42.8225C95.5244 42.8559 95.5375 42.8843 95.5425 42.8949C95.5539 42.9195 95.5616 42.9407 95.5645 42.9483C95.5763 42.979 95.5887 43.0146 95.5961 43.0377C95.6665 43.2523 95.861 43.9335 95.9771 44.4817C96.0973 45.0434 96.1462 45.4558 96.1884 45.887C96.1926 45.9307 96.1966 45.9744 96.2006 46.0181C96.2362 46.4073 96.2714 46.8305 96.3292 47.4357C96.3643 47.8057 96.1219 48.118 95.7967 48.1395C95.4714 48.1602 95.1873 47.8924 95.1531 47.5356C95.0941 46.9191 95.0574 46.4828 95.0224 46.104C95.0186 46.062 95.0147 46.02 95.0108 45.9778C94.9708 45.5758 94.9271 45.2244 94.8244 44.7416C94.648 44.0522 94.4753 43.5485 94.3124 43.0934C93.859 41.903 93.5997 41.0133 92.6885 37.9309C91.7291 35.0575 88.7789 28.8932 80.0451 22.84C77.6109 21.175 73.993 19.1705 70.0961 17.819C70.0505 17.8031 70.0048 17.7872 69.9591 17.7714C66.0174 16.3808 61.8748 15.6866 58.8988 15.4981C58.0986 15.4433 57.3037 15.4138 56.5 15.4084C45.6437 15.3484 35.2596 19.6562 26.6368 26.6693C25.0613 28.2158 23.7239 29.7352 22.5751 31.2169C19.2154 35.5875 17.3734 39.6003 16.7824 43.6248C16.6662 44.5036 16.0585 46.7366 15.7381 50.0144C15.6458 50.9743 15.5797 52.027 15.5649 53.1664C15.5553 53.9115 15.5676 54.6844 15.608 55.5C15.7189 57.7282 16.0464 60.2088 16.7294 62.8181C16.9239 63.5602 17.1256 64.2247 17.331 64.8447C18.2701 67.477 18.964 69.5948 21.556 74.1964C24.567 80.0361 32.7655 87.509 38.0879 89.9746C40.6687 91.3327 42.2177 91.9402 43.2963 92.3914C43.5986 92.5147 43.8659 92.622 44.1126 92.7179C44.7573 92.9676 45.2583 93.1495 45.9336 93.3494C49.6767 94.4258 52.7068 94.7364 56.5 94.5999C57.6358 94.5514 58.8313 94.4511 60.1407 94.2751C60.4957 94.2275 60.832 94.4446 60.8933 94.7659C60.9539 95.087 60.7052 95.3937 60.3397 95.4435C58.9597 95.6303 57.6984 95.7356 56.5 95.785C52.6244 95.9194 49.4831 95.5989 45.6126 94.4864C44.8878 94.2721 44.3379 94.0715 43.6627 93.8096C43.4129 93.7123 43.1476 93.6062 42.853 93.4861C41.7623 93.0297 40.1869 92.4129 37.5459 91.0243C32.0818 88.4955 23.6494 80.8189 20.5477 74.8142C17.8972 70.1155 17.1928 67.9708 16.2238 65.2655C16.0106 64.6246 15.7998 63.9373 15.5961 63.1637C14.8763 60.4282 14.5346 57.8273 14.4223 55.5C14.3836 54.6946 14.3715 53.9288 14.3802 53.1926C14.3942 52.0178 14.4605 50.9359 14.5542 49.9486C14.892 46.4991 15.4907 44.3362 15.5864 43.5592C16.1996 39.267 18.1889 34.9543 21.691 30.4262C22.8631 28.9207 24.2147 27.3931 25.7816 25.8525ZM79.7629 87.8487C79.4646 88.0632 79.062 88.0187 78.8679 87.7558C78.6738 87.4927 78.7526 87.1165 79.0415 86.9091C80.5657 85.8115 81.5837 84.9275 82.3654 84.2215C83.799 82.9048 84.4389 82.2174 85.439 81.2304C88.0079 78.6657 90.1052 75.797 91.6493 73.0188C94.2415 68.3923 95.2588 64.1026 95.7169 61.8658C95.7899 61.5136 96.1043 61.2694 96.426 61.3246C96.7473 61.3784 96.9523 61.7217 96.877 62.0871C96.4079 64.381 95.367 68.7798 92.7101 73.541C91.1192 76.4139 88.9553 79.3872 86.2928 82.0486C85.2937 83.0356 84.6716 83.7041 83.2311 85.0337C82.4291 85.7613 81.3717 86.6876 79.7629 87.8487Z" fill="#016473"/>
<path d="M29.0522 35.9389C28.7292 30.1263 32.4737 24.8647 38.0713 23.2653V23.2653C40.9293 22.4488 43.985 22.6806 46.6871 23.9191L47.9743 24.5091C52.1319 26.4146 56.8991 26.485 61.1111 24.703L62.1643 24.2574C65.5998 22.8039 69.4512 22.6707 72.9789 23.8834V23.8834C79.2381 26.035 83.3725 32.0049 83.1853 38.6209L82.1172 76.3585C82.0493 78.7574 80.2769 80.7651 77.905 81.13V81.13C76.3877 81.3634 74.8477 80.8826 73.7328 79.8273L72.0203 78.2063C68.7473 75.1083 63.5461 75.3869 60.6227 78.8167L59.9675 79.5854C57.1217 82.9241 51.9461 82.8676 49.174 79.4674L48.5424 78.6928C45.9789 75.5485 41.1447 75.6452 38.709 78.8895L38.5434 79.1102C37.865 80.0138 36.9197 80.6813 35.8413 81.0183V81.0183C32.5736 82.0395 29.1945 79.7944 28.8696 76.3863L28.5 72.5079L29.5 44L29.0522 35.9389Z" fill="#02837C"/>
<g filter="url(#filter0_dd_289_4889)">
<path d="M79 77V32.8C79 32.8 76.4444 26 67.5 26C58.5556 26 56 36.2 56 36.2C56 36.2 53.4444 26 44.5 26C35.5556 26 33 32.8 33 32.8V77C33 77 35.5556 70.2 44.5 70.2C53.4444 70.2 56 77 56 77C56 77 58.5556 70.2 67.5 70.2C76.4444 70.2 79 77 79 77Z" fill="#39D6A6"/>
<path d="M79 32.8H80C80 32.6798 79.9783 32.5607 79.9361 32.4482L79 32.8ZM79 77L78.0639 77.3518C78.234 77.8042 78.7032 78.0703 79.1788 77.9839C79.6543 77.8975 80 77.4833 80 77H79ZM33 32.8L32.0639 32.4482C32.0217 32.5607 32 32.6798 32 32.8H33ZM33 77H32C32 77.4833 32.3457 77.8975 32.8212 77.9839C33.2968 78.0703 33.766 77.8042 33.9361 77.3518L33 77ZM56 77L55.0639 77.3518C55.2105 77.7417 55.5834 78 56 78C56.4166 78 56.7895 77.7417 56.9361 77.3518L56 77ZM56 36.2L55.03 36.443C55.1415 36.888 55.5413 37.2 56 37.2C56.4587 37.2 56.8585 36.888 56.97 36.443L56 36.2ZM79 32.8H78V77H79H80V32.8H79ZM33 32.8H32V77H33H34V32.8H33ZM79 77C79.9361 76.6482 79.9359 76.6477 79.9357 76.6471C79.9356 76.6468 79.9353 76.6462 79.9352 76.6458C79.9348 76.6449 79.9344 76.6439 79.934 76.6427C79.9331 76.6405 79.9321 76.6378 79.9309 76.6348C79.9286 76.6286 79.9255 76.6208 79.9218 76.6115C79.9144 76.5928 79.9042 76.5677 79.8912 76.5367C79.8652 76.4747 79.8277 76.3888 79.7778 76.2826C79.6781 76.0703 79.5283 75.7756 79.3203 75.4261C78.905 74.7282 78.2534 73.8043 77.2995 72.8813C75.3751 71.0193 72.2571 69.2 67.5 69.2V70.2V71.2C71.6874 71.2 74.3193 72.7807 75.9088 74.3187C76.7118 75.0957 77.2582 75.8718 77.6016 76.4489C77.7729 76.7369 77.8927 76.9734 77.9676 77.133C78.0051 77.2127 78.0312 77.273 78.047 77.3106C78.0549 77.3294 78.0602 77.3425 78.063 77.3495C78.0644 77.353 78.0651 77.355 78.0653 77.3554C78.0654 77.3556 78.0653 77.3554 78.0651 77.3548C78.0649 77.3545 78.0648 77.3541 78.0646 77.3536C78.0645 77.3533 78.0643 77.3529 78.0643 77.3528C78.0641 77.3523 78.0639 77.3518 79 77ZM67.5 70.2V69.2C62.7429 69.2 59.6249 71.0193 57.7005 72.8813C56.7466 73.8043 56.095 74.7282 55.6797 75.4261C55.4717 75.7756 55.3219 76.0703 55.2222 76.2826C55.1723 76.3888 55.1348 76.4747 55.1088 76.5367C55.0958 76.5677 55.0856 76.5928 55.0782 76.6115C55.0745 76.6208 55.0714 76.6286 55.0691 76.6348C55.0679 76.6378 55.0669 76.6405 55.066 76.6427C55.0656 76.6439 55.0652 76.6449 55.0648 76.6458C55.0647 76.6462 55.0644 76.6468 55.0643 76.6471C55.0641 76.6477 55.0639 76.6482 56 77C56.9361 77.3518 56.9359 77.3523 56.9357 77.3528C56.9357 77.3529 56.9355 77.3533 56.9354 77.3536C56.9352 77.3541 56.9351 77.3545 56.9349 77.3548C56.9347 77.3554 56.9346 77.3556 56.9347 77.3554C56.9349 77.355 56.9356 77.353 56.937 77.3495C56.9398 77.3425 56.9451 77.3294 56.953 77.3106C56.9688 77.273 56.9949 77.2127 57.0324 77.133C57.1073 76.9734 57.2271 76.7369 57.3984 76.4489C57.7418 75.8718 58.2882 75.0957 59.0912 74.3187C60.6807 72.7807 63.3126 71.2 67.5 71.2V70.2ZM56 77C56.9361 76.6482 56.9359 76.6477 56.9357 76.6471C56.9356 76.6468 56.9353 76.6462 56.9352 76.6458C56.9348 76.6449 56.9344 76.6439 56.934 76.6427C56.9331 76.6405 56.9321 76.6378 56.9309 76.6348C56.9286 76.6286 56.9255 76.6208 56.9218 76.6115C56.9144 76.5928 56.9042 76.5677 56.8912 76.5367C56.8652 76.4747 56.8277 76.3888 56.7778 76.2826C56.6781 76.0703 56.5283 75.7756 56.3203 75.4261C55.905 74.7282 55.2534 73.8043 54.2995 72.8813C52.3751 71.0193 49.2571 69.2 44.5 69.2V70.2V71.2C48.6874 71.2 51.3193 72.7807 52.9088 74.3187C53.7118 75.0957 54.2582 75.8718 54.6016 76.4489C54.7729 76.7369 54.8927 76.9734 54.9676 77.133C55.0051 77.2127 55.0312 77.273 55.047 77.3106C55.0549 77.3294 55.0602 77.3425 55.063 77.3495C55.0644 77.353 55.0651 77.355 55.0653 77.3554C55.0654 77.3556 55.0653 77.3554 55.0651 77.3548C55.0649 77.3545 55.0648 77.3541 55.0646 77.3536C55.0645 77.3533 55.0643 77.3529 55.0643 77.3528C55.0641 77.3523 55.0639 77.3518 56 77ZM44.5 70.2V69.2C39.7429 69.2 36.6249 71.0193 34.7005 72.8813C33.7466 73.8043 33.095 74.7282 32.6797 75.4261C32.4717 75.7756 32.3219 76.0703 32.2222 76.2826C32.1723 76.3888 32.1348 76.4747 32.1088 76.5367C32.0958 76.5677 32.0856 76.5928 32.0782 76.6115C32.0745 76.6208 32.0714 76.6286 32.0691 76.6348C32.0679 76.6378 32.0669 76.6405 32.066 76.6427C32.0656 76.6439 32.0652 76.6449 32.0648 76.6458C32.0647 76.6462 32.0644 76.6468 32.0643 76.6471C32.0641 76.6477 32.0639 76.6482 33 77C33.9361 77.3518 33.9359 77.3523 33.9357 77.3528C33.9357 77.3529 33.9355 77.3533 33.9354 77.3536C33.9352 77.3541 33.9351 77.3545 33.9349 77.3548C33.9347 77.3554 33.9346 77.3556 33.9347 77.3554C33.9349 77.355 33.9356 77.353 33.937 77.3495C33.9398 77.3425 33.9451 77.3294 33.953 77.3106C33.9688 77.273 33.9949 77.2127 34.0324 77.133C34.1073 76.9734 34.2271 76.7369 34.3984 76.4489C34.7418 75.8718 35.2882 75.0957 36.0912 74.3187C37.6807 72.7807 40.3126 71.2 44.5 71.2V70.2ZM79 32.8C79.9361 32.4482 79.9359 32.4477 79.9357 32.4471C79.9356 32.4468 79.9353 32.4462 79.9352 32.4458C79.9348 32.4449 79.9344 32.4439 79.934 32.4427C79.9331 32.4405 79.9321 32.4378 79.9309 32.4348C79.9286 32.4286 79.9255 32.4208 79.9218 32.4115C79.9144 32.3928 79.9042 32.3677 79.8912 32.3367C79.8652 32.2747 79.8277 32.1888 79.7778 32.0826C79.6781 31.8703 79.5283 31.5756 79.3203 31.2261C78.905 30.5282 78.2534 29.6043 77.2995 28.6813C75.3751 26.8193 72.2571 25 67.5 25V26V27C71.6874 27 74.3193 28.5807 75.9088 30.1187C76.7118 30.8957 77.2582 31.6718 77.6016 32.2489C77.7729 32.5369 77.8927 32.7734 77.9676 32.933C78.0051 33.0127 78.0312 33.073 78.047 33.1106C78.0549 33.1294 78.0602 33.1425 78.063 33.1495C78.0644 33.153 78.0651 33.155 78.0653 33.1554C78.0654 33.1556 78.0653 33.1554 78.0651 33.1548C78.0649 33.1545 78.0648 33.1541 78.0646 33.1536C78.0645 33.1533 78.0643 33.1529 78.0643 33.1528C78.0641 33.1523 78.0639 33.1518 79 32.8ZM67.5 26V25C62.5819 25 59.4379 27.825 57.5724 30.5326C56.6399 31.8861 56.0082 33.2326 55.6095 34.2375C55.4096 34.7415 55.2667 35.1635 55.173 35.4629C55.1261 35.6126 55.0914 35.7321 55.0679 35.816C55.0561 35.858 55.0472 35.8912 55.0409 35.9149C55.0378 35.9267 55.0353 35.9362 55.0335 35.9432C55.0326 35.9468 55.0318 35.9497 55.0312 35.952C55.031 35.9531 55.0307 35.9541 55.0305 35.9549C55.0304 35.9554 55.0303 35.9559 55.0302 35.9561C55.0301 35.9565 55.03 35.957 56 36.2C56.97 36.443 56.9699 36.4434 56.9699 36.4437C56.9698 36.4438 56.9698 36.444 56.9697 36.4441C56.9697 36.4444 56.9697 36.4444 56.9697 36.4443C56.9697 36.4441 56.9699 36.4434 56.9703 36.442C56.971 36.4392 56.9723 36.4341 56.9743 36.4266C56.9783 36.4117 56.9848 36.3876 56.9939 36.3549C57.0122 36.2894 57.0411 36.1897 57.0816 36.0606C57.1625 35.8022 57.2892 35.4273 57.4686 34.975C57.8286 34.0674 58.3949 32.8639 59.2193 31.6674C60.8676 29.275 63.4737 27 67.5 27V26ZM56 36.2C56.97 35.957 56.9699 35.9565 56.9698 35.9561C56.9697 35.9559 56.9696 35.9554 56.9695 35.9549C56.9693 35.9541 56.969 35.9531 56.9688 35.952C56.9682 35.9497 56.9674 35.9468 56.9665 35.9432C56.9647 35.9362 56.9622 35.9267 56.9591 35.9149C56.9528 35.8912 56.9439 35.858 56.9321 35.816C56.9086 35.7321 56.8739 35.6126 56.827 35.4629C56.7333 35.1635 56.5904 34.7415 56.3905 34.2375C55.9918 33.2326 55.3601 31.8861 54.4276 30.5326C52.5621 27.825 49.4181 25 44.5 25V26V27C48.5263 27 51.1324 29.275 52.7807 31.6674C53.6051 32.8639 54.1714 34.0674 54.5314 34.975C54.7108 35.4273 54.8375 35.8022 54.9184 36.0606C54.9589 36.1897 54.9878 36.2894 55.0061 36.3549C55.0152 36.3876 55.0217 36.4117 55.0257 36.4266C55.0277 36.4341 55.029 36.4392 55.0297 36.442C55.0301 36.4434 55.0303 36.4441 55.0303 36.4443C55.0303 36.4444 55.0303 36.4444 55.0303 36.4441C55.0302 36.444 55.0302 36.4438 55.0301 36.4437C55.0301 36.4434 55.03 36.443 56 36.2ZM44.5 26V25C39.7429 25 36.6249 26.8193 34.7005 28.6813C33.7466 29.6043 33.095 30.5282 32.6797 31.2261C32.4717 31.5756 32.3219 31.8703 32.2222 32.0826C32.1723 32.1888 32.1348 32.2747 32.1088 32.3367C32.0958 32.3677 32.0856 32.3928 32.0782 32.4115C32.0745 32.4208 32.0714 32.4286 32.0691 32.4348C32.0679 32.4378 32.0669 32.4405 32.066 32.4427C32.0656 32.4439 32.0652 32.4449 32.0648 32.4458C32.0647 32.4462 32.0644 32.4468 32.0643 32.4471C32.0641 32.4477 32.0639 32.4482 33 32.8C33.9361 33.1518 33.9359 33.1523 33.9357 33.1528C33.9357 33.1529 33.9355 33.1533 33.9354 33.1536C33.9352 33.1541 33.9351 33.1545 33.9349 33.1548C33.9347 33.1554 33.9346 33.1556 33.9347 33.1554C33.9349 33.155 33.9356 33.153 33.937 33.1495C33.9398 33.1425 33.9451 33.1294 33.953 33.1106C33.9688 33.073 33.9949 33.0127 34.0324 32.933C34.1073 32.7734 34.2271 32.5369 34.3984 32.2489C34.7418 31.6718 35.2882 30.8957 36.0912 30.1187C37.6807 28.5807 40.3126 27 44.5 27V26Z" fill="#39D6A6"/>
</g>
<path d="M56.1602 42V47.4468" stroke="#009C8F" stroke-width="2" stroke-linecap="round"/>
<path d="M56.1602 61.9716V67.4183" stroke="#009C8F" stroke-width="2" stroke-linecap="round"/>
<rect x="52.5291" y="47.4468" width="7.26238" height="14.5248" rx="0.8" stroke="#009C8F" stroke-width="2"/>
<path d="M68.5559 30V39.4113" stroke="#009C8F" stroke-width="2" stroke-linecap="round"/>
<path d="M68.5559 48.8226V54.4694" stroke="#009C8F" stroke-width="2" stroke-linecap="round"/>
<rect x="64.7914" y="39.4113" width="7.52904" height="9.4113" rx="0.8" stroke="#009C8F" stroke-width="2"/>
<path d="M43.7645 35V44.4113" stroke="#009C8F" stroke-width="2" stroke-linecap="round"/>
<path d="M43.7645 53.8226V59.4694" stroke="#009C8F" stroke-width="2" stroke-linecap="round"/>
<rect x="40" y="44.4113" width="7.52904" height="9.4113" rx="0.8" stroke="#009C8F" stroke-width="2"/>
<path d="M89.53 48.2951C89.6894 47.8558 90.3106 47.8558 90.47 48.2951L92.214 53.1004C92.2666 53.2454 92.3832 53.358 92.53 53.4055L97.5305 55.0243C97.9919 55.1736 97.9919 55.8264 97.5305 55.9757L92.53 57.5945C92.3832 57.642 92.2666 57.7546 92.214 57.8996L90.47 62.7049C90.3106 63.1442 89.6894 63.1442 89.53 62.7049L87.786 57.8996C87.7334 57.7546 87.6168 57.642 87.47 57.5945L82.4695 55.9757C82.0081 55.8264 82.0081 55.1736 82.4695 55.0243L87.47 53.4055C87.6168 53.358 87.7334 53.2454 87.786 53.1004L89.53 48.2951Z" fill="#FE8E36"/>
<path d="M21.5192 48.6867C21.6571 48.2028 22.3429 48.2028 22.4808 48.6867L23.8303 53.4203C23.8792 53.5915 24.0154 53.7239 24.1879 53.7678L29.0944 55.0154C29.5968 55.1432 29.5968 55.8568 29.0944 55.9846L24.1879 57.2322C24.0154 57.2761 23.8792 57.4085 23.8303 57.5797L22.4808 62.3133C22.3429 62.7972 21.6571 62.7972 21.5192 62.3133L20.1697 57.5797C20.1208 57.4085 19.9846 57.2761 19.8121 57.2322L14.9056 55.9846C14.4032 55.8568 14.4032 55.1432 14.9056 55.0154L19.8121 53.7678C19.9846 53.7239 20.1208 53.5915 20.1697 53.4203L21.5192 48.6867Z" fill="#FE8E36"/>
<defs>
<filter id="filter0_dd_289_4889" x="27.3" y="25" width="53.4" height="59.7001" filterUnits="userSpaceOnUse" color-interpolation-filters="sRGB">
<feFlood flood-opacity="0" result="BackgroundImageFix"/>
<feColorMatrix in="SourceAlpha" type="matrix" values="0 0 0 0 0 0 0 0 0 0 0 0 0 0 0 0 0 0 127 0" result="hardAlpha"/>
<feOffset dx="0.5" dy="1.5"/>
<feComposite in2="hardAlpha" operator="out"/>
<feColorMatrix type="matrix" values="0 0 0 0 0.00392157 0 0 0 0 0.713726 0 0 0 0 0.65098 0 0 0 1 0"/>
<feBlend mode="normal" in2="BackgroundImageFix" result="effect1_dropShadow_289_4889"/>
<feColorMatrix in="SourceAlpha" type="matrix" values="0 0 0 0 0 0 0 0 0 0 0 0 0 0 0 0 0 0 127 0" result="hardAlpha"/>
<feOffset dx="-2" dy="4"/>
<feGaussianBlur stdDeviation="1.35"/>
<feComposite in2="hardAlpha" operator="out"/>
<feColorMatrix type="matrix" values="0 0 0 0 0 0 0 0 0 0 0 0 0 0 0 0 0 0 0.32 0"/>
<feBlend mode="normal" in2="effect1_dropShadow_289_4889" result="effect2_dropShadow_289_4889"/>
<feBlend mode="normal" in="SourceGraphic" in2="effect2_dropShadow_289_4889" result="shape"/>
</filter>
</defs>
</svg>
